<?xml version="1.0" encoding="UTF-8"?>
<svg width="450px" height="704px" viewBox="0 0 450 704" version="1.1" xmlns="http://www.w3.org/2000/svg" xmlns:xlink="http://www.w3.org/1999/xlink">
    <title>yellow_web</title>
    <g id="Page-1" stroke="none" stroke-width="1" fill="none" fill-rule="evenodd">
        <g id="yellow_web">
            <path d="M65,0 L295,0 C380.604136,-1.57252247e-14 450,69.3958638 450,155 L450,639 C450,674.898509 420.898509,704 385,704 L155,704 C69.3958638,704 5.24174157e-15,634.604136 0,549 L0,65 C-4.39629938e-15,29.1014913 29.1014913,1.86071541e-14 65,0 Z" id="Rectangle" fill="#000000"></path>
            <g id="Green_pack" transform="translate(90.000000, 67.000000)">
                <rect id="Rectangle" fill="#FFFFFF" x="0" y="0" width="271" height="571"></rect>
                <g id="UGO_LOGO_SVG-Copy-7" transform="translate(14.000000, 28.000000)">
                    <path d="M220.644262,128.331276 C220.322062,128.468849 220.025418,128.65926 219.766034,128.886925 C219.667152,128.995279 219.561584,129.100224 219.455298,129.200299 C219.225053,129.471549 219.034217,129.770558 218.906913,130.090749 C218.757874,130.448926 218.6781,130.868707 218.6781,131.319897 C218.6781,131.600157 218.699835,131.825874 218.733512,131.995101 C218.779609,132.200121 218.858189,132.425108 218.968534,132.671522 C219.058578,132.870942 219.179672,133.072553 219.324651,133.266373 C219.428309,133.406625 219.539371,133.532267 219.648284,133.648899 C219.779648,133.750922 219.904324,133.859276 220.020641,133.980049 C223.443034,136.967939 226.505249,140.280405 229.176956,143.855599 C231.943245,147.554488 234.298005,151.532904 236.199918,155.717072 C238.103025,159.905135 239.559256,164.301141 240.536365,168.838616 C241.503682,173.326418 242,177.94668 242,182.633902 C242,191.282984 240.301343,199.567071 237.221453,207.14284 C234.031217,214.990589 229.369225,222.051372 223.574398,227.957515 C217.81277,233.833223 210.896809,238.586188 203.177379,241.840459 C195.767729,244.967141 187.66161,246.694717 179.162832,246.694717 C173.462826,246.694717 167.845459,245.896794 162.438514,244.379107 C156.952511,242.837803 151.736641,240.560178 146.927044,237.632916 C142.097145,234.686419 137.654413,231.078597 133.735703,226.893942 C129.882675,222.783065 126.530503,218.108749 123.808161,212.957917 C123.650525,212.653309 123.464227,212.397399 123.257866,212.185561 C123.050549,211.97494 122.803585,211.791347 122.535363,211.644277 C122.3087,211.520827 122.070334,211.429761 121.832685,211.367427 C121.552999,211.299249 121.276179,211.263212 121.019422,211.263212 C120.783205,211.263212 120.51379,211.301928 120.219295,211.375949 L120.201621,211.375949 C119.966837,211.435118 119.732532,211.528376 119.508257,211.650608 C119.234781,211.798165 118.99116,211.982488 118.783844,212.194326 C118.579394,212.403486 118.391901,212.656231 118.234265,212.957917 C115.513834,218.10607 112.164528,222.779657 108.308873,226.893942 C104.389447,231.078597 99.9459974,234.686419 95.1132326,237.632916 C90.3043519,240.560178 85.0903929,242.837803 79.6017629,244.379107 C74.1984006,245.896794 68.5810338,246.694717 62.878161,246.694717 C54.4302572,246.694717 46.3267657,244.97128 38.9049345,241.848738 C31.2301677,238.618572 24.3108638,233.887765 18.5186636,228.009866 C12.7348229,222.136351 8.06112804,215.121588 4.86014389,207.315232 C1.79124031,199.83199 0.0789693445,191.595628 0.0438593106,182.916353 L0.0438593106,182.898335 C-0.0225392567,142.63473 8.18580023e-05,102.373804 0.0235575904,62.1157998 L0.0612949058,4.92657497 C0.0505469361,4.79703719 0.0438593106,4.66238608 0.0438593106,4.52846544 C0.0438593106,2.02926288 2.03295021,0 4.48778645,0 L21.3243613,0 L21.3243613,0.0158269843 C23.7684496,0.0158269843 25.7501363,2.03754161 25.7501363,4.52846544 L25.7549132,182.234332 C25.7651835,182.368253 25.7733042,182.498764 25.7733042,182.633902 C25.7733042,182.761736 25.7678108,182.888595 25.758257,183.012289 C25.8017266,188.012886 26.7941225,192.766338 28.5577448,197.100253 C30.4360122,201.720515 33.1975238,205.892021 36.6328137,209.390759 C40.0647599,212.892905 44.1580643,215.709621 48.6896471,217.626391 C53.0497402,219.464512 57.8371248,220.481822 62.878161,220.481822 C67.8984183,220.481822 72.6640678,219.477661 76.9978882,217.655366 C81.5184839,215.753937 85.5948308,212.967413 89.0208056,209.502521 C92.4477359,206.036412 95.2128306,201.905326 97.1099662,197.318909 C98.9352108,192.894658 99.9636716,188.041131 100.005708,182.941189 L99.9839733,4.93071433 C99.9737033,4.7997156 99.9677324,4.66238608 99.9677324,4.52846544 C99.9677324,2.02926288 101.956107,0 104.407121,0 L121.261848,0 L121.261848,0.0158269843 C123.706653,0.0158269843 125.687623,2.03754161 125.687623,4.52846544 L125.687623,20.1272976 C125.69861,20.2604878 125.704581,20.3958694 125.704581,20.5290596 L125.69861,20.8056665 C125.725599,21.2178986 125.813016,21.5746145 125.946291,21.8721618 C126.131156,22.2814719 126.410125,22.6452491 126.755255,22.9454748 C126.919102,23.0910831 127.078888,23.2103942 127.223866,23.2953729 C127.357858,23.3808386 127.534602,23.4597301 127.745979,23.5376475 C127.972641,23.6267656 128.16706,23.6810644 128.315383,23.7115009 C128.442447,23.7314672 128.629462,23.7468072 128.87786,23.7468072 C129.332857,23.7468072 129.779733,23.6550107 130.18314,23.4643564 C130.5137,23.3070605 130.835184,23.0764736 131.124902,22.770891 C131.22856,22.633318 131.342966,22.5079196 131.46406,22.3759469 C134.395151,18.8959583 137.642709,15.7782859 141.144397,13.056775 C144.772673,10.2400588 148.675142,7.84360993 152.774656,5.90882199 C156.880142,3.96940766 161.192227,2.48751495 165.63902,1.49504128 C170.037806,0.510115878 174.567,0.00267841272 179.162832,0.00267841272 L230.742338,0.00267841272 C233.19383,0.00267841272 235.181488,2.02926288 235.181488,4.53114385 L235.181488,21.697578 L235.16453,21.697578 C235.16453,24.1904498 233.182366,26.209486 230.742338,26.209486 L179.556924,26.2163037 C179.424844,26.2272609 179.294196,26.2350526 179.162832,26.2350526 C179.038872,26.2350526 178.914912,26.2272609 178.793102,26.2163037 C173.887251,26.2667066 169.22311,27.2757377 164.973363,29.0702743 C160.439391,30.9892352 156.348714,33.8044905 152.913424,37.3066369 C149.482911,40.8102442 146.7171,44.9749325 144.839788,49.5973859 C143.03198,54.0396554 142.038867,58.9248364 142.038867,64.0634931 C142.038867,69.1807223 143.022665,74.0405805 144.809933,78.4572828 C146.67578,83.0624483 149.409825,87.2188582 152.806422,90.7134559 C156.20708,94.2051322 160.260497,97.0259879 164.759598,98.9573668 C169.095329,100.821542 173.860261,101.871237 178.858068,101.909221 L205.908557,101.883655 C206.039205,101.875376 206.171285,101.867097 206.305277,101.867097 L206.568721,101.875376 C206.90979,101.850053 207.226019,101.771161 207.509049,101.65258 C207.8869,101.494554 208.238239,101.250819 208.539421,100.940366 C208.836782,100.64355 209.070849,100.283181 209.236129,99.8821497 C209.381584,99.5198336 209.464224,99.1083322 209.464224,98.6646896 L209.477838,80.777032 C209.467568,80.6479808 209.460164,80.5162518 209.460164,80.3835485 L209.471629,80.1152204 C209.443206,79.7645921 209.368209,79.4400169 209.246399,79.1473397 L209.25643,79.1473397 L209.246399,79.1295643 C209.102137,78.7643267 208.861144,78.4124805 208.549692,78.0954538 C208.252331,77.7925497 207.897648,77.5495445 207.503556,77.3839698 C207.148156,77.2334921 206.744749,77.148513 206.305277,77.148513 L178.852096,77.148513 C176.401798,77.148513 174.407931,75.1221722 174.407931,72.6200478 L174.407931,55.4716318 C174.407931,52.9716991 176.401798,50.9453579 178.852096,50.9453579 L230.742338,50.9453579 C233.19383,50.9453579 235.181488,52.9716991 235.181488,55.4716318 L235.181488,123.582693 L235.16453,123.582693 C235.16453,126.071669 233.182366,128.091192 230.742338,128.091192 L222.23114,128.095332 C222.10312,128.109211 221.973189,128.116029 221.838481,128.116029 L221.578619,128.10702 C221.243282,128.134047 220.929919,128.211234 220.644262,128.331276 Z M141.65624,262.642717 L237.5587,262.642717 C240.000639,262.642717 242,264.680989 242,267.172643 L242,295.470074 C242,297.960998 240.000639,300 237.5587,300 L141.65624,300 C139.212868,300 137.214224,297.960998 137.214224,295.470074 L137.214224,267.172643 C137.214224,264.680989 139.212868,262.642717 141.65624,262.642717 Z M28.3824335,281.162723 C28.8116357,281.368961 29.2253131,281.606366 29.6227491,281.875668 L29.7068222,281.928019 C30.1116624,282.20633 30.4942901,282.518974 30.8530334,282.862542 C31.2058057,283.200752 31.5334993,283.568668 31.8265606,283.963612 C32.1029028,284.330068 32.3513004,284.728908 32.5705589,285.154776 L32.6059078,285.221736 C32.8306598,285.663431 33.0167191,286.129475 33.1624138,286.607693 C33.3107358,287.10393 33.4244254,287.620377 33.4982281,288.154598 C33.568687,288.69369 33.6085739,289.247147 33.6085739,289.808153 C33.6085739,290.613868 33.5307109,291.378433 33.3768955,292.098439 C33.2226024,292.827211 32.986386,293.514102 32.6708733,294.148399 C32.3615707,294.777095 31.9653288,295.36318 31.4895521,295.905681 C31.0209406,296.437711 30.4780487,296.92226 29.8632649,297.357868 C29.2281792,297.805893 28.5233513,298.195724 27.7569016,298.524925 C27.0107537,298.83903 26.1951023,299.108088 25.314963,299.32504 L25.2633727,299.337945 C24.365559,299.556114 23.3738797,299.721201 22.2966943,299.832234 C21.2295403,299.943266 20.1117515,299.997809 18.9507319,299.997809 L1.2055954,299.997809 C0.539937814,299.997809 0.000389744963,299.449951 0.000389744963,298.771339 L0.000389744963,263.872838 C0.000389744963,263.194226 0.539937814,262.642717 1.2055954,262.642717 L17.901969,262.642717 C18.9973065,262.642717 20.046786,262.700181 21.0446753,262.807804 C22.0380265,262.91421 22.9642626,263.079785 23.8245779,263.296493 C24.6445286,263.504922 25.4090674,263.765215 26.1124623,264.076398 L26.1788609,264.102695 C26.9066179,264.429218 27.5782465,264.81564 28.187537,265.258065 C28.7738984,265.686611 29.2950555,266.157525 29.7419322,266.670319 C30.1997957,267.189931 30.5788408,267.748259 30.876679,268.340431 C31.1766667,268.931386 31.4021352,269.569823 31.5509349,270.248191 C31.7006899,270.929482 31.7752092,271.63147 31.7752092,272.356102 C31.7752092,272.804127 31.7467868,273.244605 31.6966296,273.669012 C31.6438451,274.09634 31.5604887,274.518555 31.4542032,274.927865 C31.3553219,275.306983 31.2301677,275.677578 31.0818458,276.038433 L31.0560506,276.108315 C30.8998468,276.47891 30.7102048,276.848044 30.492857,277.212551 C30.2795696,277.565372 30.0440696,277.902121 29.7861183,278.221583 C29.5233902,278.546645 29.2444206,278.848331 28.9539866,279.119581 C28.6621196,279.393753 28.3377697,279.659403 27.9845198,279.909956 C27.6479889,280.151501 27.2856629,280.373809 26.9073344,280.575177 C27.3919484,280.733447 27.8639037,280.919718 28.3148407,281.132287 L28.3824335,281.162723 Z M8.42942513,269.152964 L8.42942513,277.960803 L16.8579829,277.960803 C17.388216,277.960803 17.8749796,277.938645 18.3068091,277.89579 L18.3366646,277.892382 C18.7909455,277.845388 19.2175204,277.773801 19.6154341,277.680543 C20.0176471,277.588017 20.3914375,277.465296 20.733223,277.321636 C21.0582894,277.182846 21.3549333,277.02141 21.6155119,276.839765 C21.8877938,276.654955 22.1295037,276.439464 22.3392085,276.200112 C22.5247901,275.987543 22.6812328,275.756956 22.8051927,275.509812 L22.8328985,275.45113 C22.9723833,275.164783 23.0746084,274.869184 23.1407682,274.56701 C23.2078833,274.259723 23.2425156,273.911286 23.2425156,273.528273 C23.2425156,273.145747 23.2078833,272.796579 23.1407682,272.487344 C23.0746084,272.182979 22.9723833,271.890302 22.8355258,271.614913 C22.7063113,271.349262 22.5388819,271.100657 22.3325208,270.868853 C22.1295037,270.637535 21.8918541,270.430567 21.6202887,270.247705 C21.3759516,270.080669 21.0962655,269.932139 20.7895901,269.800409 L20.7320287,269.778982 C20.3840334,269.635322 20.0095264,269.516011 19.6154341,269.427623 C19.2208642,269.335096 18.7909455,269.266188 18.334515,269.220655 C17.8952813,269.175609 17.400397,269.152964 16.8579829,269.152964 L8.42942513,269.152964 Z M19.9046739,293.418896 C20.3718524,293.375311 20.8268497,293.304211 21.2593958,293.208276 C21.6845377,293.115749 22.0779134,292.995707 22.4354625,292.852047 C22.778681,292.714717 23.0915664,292.552552 23.3738797,292.368228 C23.6628807,292.177817 23.9134278,291.963788 24.1197888,291.731984 C24.3297324,291.496526 24.5071933,291.230877 24.6493054,290.939417 C24.7847298,290.66354 24.8924484,290.351384 24.964818,290.011956 C25.0371877,289.669605 25.0751638,289.296089 25.0751638,288.899927 C25.0751638,288.101273 24.9323353,287.412434 24.651455,286.84315 C24.3791731,286.285309 23.9547477,285.809282 23.3860607,285.417747 C22.844363,285.044474 22.1631806,284.759345 21.3549333,284.566743 C20.4929462,284.359774 19.4802486,284.257507 18.3216175,284.257507 L8.42942513,284.257507 L8.42942513,293.486344 L18.3216175,293.486344 C18.9101285,293.486344 19.4382121,293.463699 19.9046739,293.418896 Z M69.3467671,291.995442 L52.334164,291.995442 L49.4362727,299.146073 C49.2793524,299.639632 48.8250715,299.997809 48.2874342,299.997809 L42.2516134,299.997809 C42.0877666,299.99513 41.9212924,299.959824 41.7622225,299.888724 C41.1562759,299.614796 40.8847105,298.888702 41.1555593,298.270963 L56.3732513,263.466937 C56.5370981,262.987258 56.9839748,262.642717 57.5094311,262.642717 L64.3298533,262.642717 C64.7889111,262.649778 65.2276673,262.91835 65.4266244,263.37368 L80.6937565,298.179897 C80.7878608,298.355211 80.8413619,298.556822 80.8413619,298.771339 C80.8413619,299.449951 80.3025305,299.997809 79.636873,299.997809 L73.3954076,299.997809 C72.9227358,299.993182 72.4739485,299.70927 72.2835897,299.235922 L69.3467671,291.995442 Z M66.6791208,285.432357 L60.8680517,271.128902 L55.0565054,285.432357 L66.6791208,285.432357 Z M113.467898,299.466509 L106.761882,289.592175 L98.9617222,289.592175 L98.9617222,298.771339 C98.9617222,299.449951 98.4219352,299.997809 97.7572333,299.997809 L91.6863023,299.997809 C91.021361,299.997809 90.4818129,299.449951 90.4818129,298.771339 L90.4818129,263.872838 C90.4818129,263.194226 91.021361,262.642717 91.6863023,262.642717 L106.343428,262.642717 C107.153108,262.642717 107.938426,262.678023 108.690545,262.746444 C109.43956,262.813405 110.174721,262.91835 110.89173,263.058358 C111.590348,263.194226 112.26747,263.367593 112.916169,263.572613 C113.573467,263.78226 114.201627,264.026726 114.796825,264.299924 C115.383187,264.569226 115.947813,264.875052 116.483301,265.211071 C117.009474,265.541733 117.508419,265.906241 117.972253,266.300211 C118.431788,266.690286 118.858363,267.111283 119.247679,267.559309 C119.639144,268.010012 119.99932,268.49237 120.318893,268.993477 C120.63966,269.500914 120.927467,270.034406 121.169177,270.590054 C121.408021,271.136694 121.609127,271.713527 121.77178,272.31617 C121.937537,272.932448 122.059347,273.560657 122.13721,274.192276 C122.21579,274.833391 122.255677,275.505672 122.255677,276.198651 C122.255677,276.868741 122.213163,277.536883 122.13124,278.203808 C122.0486,278.85661 121.926073,279.481898 121.766286,280.07407 C121.600529,280.678174 121.397989,281.251111 121.15819,281.790689 C120.905732,282.350478 120.617926,282.879829 120.297158,283.377527 C119.966837,283.881312 119.602362,284.359043 119.207792,284.801469 C118.818476,285.237076 118.385214,285.650525 117.919468,286.036948 C117.454201,286.421422 116.949763,286.781059 116.412842,287.107582 C115.880698,287.431913 115.313444,287.72873 114.717529,287.992919 L121.556342,297.981694 C121.73237,298.194993 121.837461,298.471114 121.837461,298.771339 C121.837461,299.449951 121.298391,299.997809 120.633689,299.997809 L114.455517,299.997809 C114.075039,299.993182 113.700771,299.808859 113.467898,299.466509 Z M113.546956,274.70507 C113.465032,274.252175 113.339162,273.81949 113.173404,273.414319 C113.017678,273.034715 112.827319,272.684817 112.600657,272.364381 L112.555276,272.30716 C112.303296,271.959941 112.008802,271.646079 111.681108,271.371177 C111.358908,271.097979 110.991327,270.854974 110.582188,270.643136 C110.1666,270.425697 109.715663,270.247705 109.233676,270.109644 C108.268747,269.830603 107.144987,269.690595 105.872905,269.690595 L98.9617222,269.690595 L98.9617222,282.705976 L105.872905,282.705976 C106.527576,282.705976 107.130657,282.6714 107.670443,282.603222 C108.215485,282.53261 108.740703,282.424986 109.239647,282.282056 C109.715663,282.144727 110.169944,281.963325 110.588398,281.741017 C110.985834,281.531857 111.351504,281.282765 111.680391,280.997636 C112.011429,280.716889 112.304729,280.400593 112.555276,280.054834 C112.801046,279.714676 113.010273,279.343837 113.174598,278.946459 C113.337728,278.551514 113.463122,278.124916 113.546478,277.668856 C113.628879,277.218882 113.670199,276.727272 113.670199,276.198651 C113.670199,275.674656 113.632462,275.188158 113.555793,274.745003 L113.546956,274.70507 Z M159.983677,271.452747 C159.983677,271.00813 159.628278,270.646544 159.192866,270.646544 L151.739507,270.646544 C151.302662,270.646544 150.948695,271.00813 150.948695,271.452747 L150.948695,273.805611 C150.948695,274.250227 151.302662,274.611082 151.739507,274.611082 L155.137538,274.611082 L155.137538,291.188753 C155.137538,291.633856 155.49031,291.995442 155.927633,291.995442 L159.192866,291.995442 C159.628278,291.995442 159.983677,291.633856 159.983677,291.188753 L159.983677,271.452747 Z M176.219083,278.779423 C175.575876,278.704914 174.889917,278.667417 174.165026,278.667417 L172.459443,278.667417 L172.789286,274.611082 L180.733469,274.611082 C181.169597,274.611082 181.52428,274.250227 181.52428,273.805611 L181.52428,271.452747 C181.52428,271.00813 181.169597,270.646544 180.733469,270.646544 L169.468402,270.646544 C169.034423,270.646544 168.680218,271.005452 168.678307,271.450068 L167.752787,281.785332 C167.714095,282.225566 168.033668,282.616858 168.465736,282.656304 L173.028846,282.662391 C173.481217,282.662391 173.898238,282.678461 174.27585,282.707437 C174.669225,282.738361 175.016743,282.782676 175.319836,282.837705 C175.638931,282.896387 175.930559,282.973817 176.191855,283.067562 C176.43237,283.154001 176.641597,283.253346 176.812131,283.363648 C176.99628,283.481011 177.158216,283.615662 177.294835,283.76127 C177.428349,283.904201 177.540605,284.063688 177.632083,284.23608 L177.650235,284.270656 C177.728814,284.427465 177.791152,284.599857 177.833905,284.78832 C177.88048,284.98774 177.904126,285.205909 177.904126,285.437714 C177.904126,285.660022 177.881197,285.869181 177.837965,286.061784 C177.792585,286.257064 177.726904,286.43944 177.64283,286.604284 C177.556846,286.772781 177.44865,286.930077 177.321346,287.073737 C177.193326,287.218614 177.0376,287.355214 176.856795,287.480856 C176.681484,287.605037 176.492559,287.710712 176.294318,287.796908 C176.085569,287.890896 175.860339,287.968083 175.615047,288.028956 C175.376203,288.089586 175.123506,288.13658 174.857435,288.167016 C174.591362,288.196722 174.299018,288.211818 173.985416,288.211818 C173.705968,288.211818 173.43297,288.202809 173.171675,288.182843 C172.905603,288.162146 172.634038,288.129762 172.362711,288.087637 L172.303,288.080577 C172.072994,288.042104 171.829134,287.992919 171.57381,287.931559 C171.313231,287.869469 171.049309,287.79496 170.784432,287.709982 L170.745261,287.699024 C170.486593,287.612585 170.242256,287.522979 170.022042,287.427774 C169.771734,287.32429 169.535279,287.215936 169.317214,287.103199 C169.123751,287.012133 168.921211,286.882352 168.734435,286.772781 C168.362795,286.543654 167.876031,286.665644 167.65104,287.045248 L166.44273,289.432688 C166.250938,289.811075 166.383735,290.273466 166.735074,290.488713 C167.080442,290.688376 167.456144,290.911172 167.821813,291.06725 C168.117741,291.203118 168.418923,291.32803 168.722255,291.437845 C169.028213,291.548877 169.372865,291.657231 169.749999,291.762177 C170.102055,291.861764 170.458887,291.950639 170.816914,292.023931 C171.178524,292.099169 171.544193,292.16199 171.911058,292.210932 C172.279355,292.261335 172.644308,292.298589 173.001141,292.322695 C173.378991,292.348262 173.747766,292.361411 174.104599,292.361411 C175.061885,292.361411 175.944173,292.279841 176.749793,292.120597 L176.776305,292.113536 C177.164188,292.037079 177.537261,291.938221 177.892661,291.822319 C178.256898,291.703495 178.604893,291.561295 178.939274,291.39986 C179.26434,291.241104 179.568389,291.068711 179.849269,290.884388 C180.128955,290.701525 180.396938,290.497722 180.646291,290.278336 C180.888478,290.065767 181.111319,289.838589 181.309799,289.601915 C181.512099,289.360371 181.69362,289.104947 181.85269,288.838567 C182.01391,288.570726 182.153395,288.296067 182.272339,288.016538 C182.389611,287.741149 182.489687,287.45261 182.571133,287.153115 C182.648996,286.861168 182.709184,286.555342 182.749071,286.239777 C182.788958,285.915445 182.810693,285.595983 182.810693,285.286018 C182.810693,284.790999 182.766746,284.31692 182.680762,283.864268 C182.593345,283.407964 182.46007,282.975765 182.283326,282.570594 C182.107298,282.169076 181.884457,281.790689 181.617668,281.437382 C181.353746,281.086023 181.047071,280.762422 180.701703,280.466336 C180.348214,280.167328 179.941463,279.901678 179.482405,279.671821 C179.034812,279.448052 178.542555,279.262511 178.011844,279.116903 C177.466802,278.967886 176.86826,278.853932 176.219083,278.779423 Z M193.916211,292.032209 L193.953471,292.041705 C194.719682,292.254274 195.527452,292.361411 196.369137,292.361411 C196.787352,292.361411 197.20915,292.333165 197.632382,292.277162 C198.046776,292.22262 198.447556,292.140563 198.830183,292.032209 C199.220693,291.923125 199.596394,291.785065 199.949883,291.626308 L200.014132,291.593193 C200.362844,291.432245 200.693165,291.249382 201.00605,291.049232 C201.348074,290.829115 201.670991,290.584649 201.97074,290.32046 L202.01206,290.279796 C202.299867,290.020964 202.569999,289.741436 202.81983,289.444619 C203.083274,289.131975 203.330238,288.787434 203.565977,288.416108 C203.788102,288.06061 203.997807,287.671266 204.191509,287.25319 C204.578197,286.418012 204.867915,285.501265 205.058751,284.506113 C205.248393,283.521188 205.343214,282.458101 205.343214,281.32075 C205.343214,280.172198 205.246243,279.101563 205.053974,278.114689 C204.962736,277.62941 204.840209,277.155331 204.69738,276.697566 C204.550969,276.238583 204.382345,275.801759 204.191509,275.388309 C203.997807,274.97072 203.788102,274.580889 203.565977,274.224661 L203.526568,274.165979 C203.305399,273.817298 203.06966,273.493697 202.81983,273.19688 C202.557818,272.884967 202.273594,272.592289 201.97074,272.321039 C201.670991,272.055877 201.348074,271.812384 201.00605,271.591537 C200.329644,271.15666 199.600455,270.82819 198.821346,270.60856 L198.784086,270.59882 C198.01692,270.386982 197.210584,270.28082 196.369137,270.28082 C195.514554,270.28082 194.697469,270.390391 193.916211,270.60856 C193.136148,270.82819 192.408391,271.15666 191.731985,271.591537 C191.395455,271.809462 191.073971,272.053198 190.76849,272.3225 C190.465874,272.592289 190.179501,272.884967 189.918206,273.19688 C189.654761,273.510255 189.407796,273.854065 189.172058,274.224661 C188.949455,274.580889 188.740228,274.97072 188.546526,275.388309 C188.15936,276.223487 187.87012,277.139504 187.678568,278.134656 C187.489643,279.118851 187.394821,280.183885 187.394821,281.32075 C187.394821,282.458101 187.489643,283.521188 187.678568,284.506113 C187.87012,285.501265 188.160077,286.418012 188.546526,287.25319 C188.740228,287.671266 188.949455,288.06061 189.172058,288.416108 L189.212183,288.475521 C189.433353,288.823227 189.668375,289.147802 189.918206,289.444619 C190.179501,289.755802 190.465874,290.04921 190.76849,290.318269 C191.073971,290.588301 191.395455,290.832524 191.731985,291.049232 C192.407675,291.485569 193.136148,291.81331 193.916211,292.032209 Z M197.278893,288.077898 L197.25262,288.085446 C196.981771,288.149728 196.68656,288.182843 196.369137,288.182843 C196.046698,288.182843 195.746232,288.147537 195.469174,288.077898 C195.195698,288.009477 194.931059,287.902584 194.681228,287.763063 L194.652806,287.747966 C194.421127,287.612585 194.199719,287.443601 193.994552,287.244181 C193.776727,287.03356 193.574188,286.786416 193.392188,286.504939 C193.215444,286.233689 193.058285,285.921045 192.921666,285.567008 L192.906619,285.53024 C192.774061,285.179612 192.661565,284.790511 192.574148,284.370001 C192.481477,283.930497 192.411735,283.461776 192.366355,282.966756 C192.32384,282.47758 192.299956,281.927288 192.299956,281.32075 C192.299956,280.713237 192.32384,280.163189 192.366355,279.673282 C192.411735,279.179724 192.481477,278.711002 192.574148,278.270768 C192.664909,277.835161 192.782181,277.43486 192.921666,277.07303 C193.056374,276.723132 193.213294,276.409028 193.392188,276.13583 C193.574188,275.854109 193.777443,275.607695 193.995269,275.397318 C194.205929,275.193028 194.436891,275.019662 194.681228,274.881115 L194.719682,274.858227 C194.953988,274.729176 195.205968,274.630562 195.469174,274.564088 C195.746949,274.493232 196.046698,274.458656 196.369137,274.458656 C196.696831,274.458656 197.00064,274.493232 197.278893,274.564088 C197.561207,274.63324 197.827995,274.739403 198.077825,274.877463 C198.322401,275.013575 198.555274,275.188158 198.771905,275.397318 C198.989253,275.605747 199.191554,275.854109 199.374508,276.13583 C199.731102,276.681739 200.000756,277.376909 200.182039,278.214034 C200.371681,279.084518 200.467219,280.120334 200.467219,281.32075 C200.467219,281.928019 200.444767,282.47758 200.40082,282.966756 C200.355439,283.461776 200.286414,283.930497 200.19422,284.370731 C200.104176,284.802199 199.987859,285.20177 199.845747,285.565547 L199.831417,285.604749 C199.700769,285.93955 199.54767,286.239777 199.374508,286.504939 C199.191554,286.787146 198.98997,287.034291 198.771905,287.244181 C198.555274,287.45261 198.321685,287.626464 198.077825,287.763063 C197.827995,287.901853 197.561207,288.006798 197.278893,288.077898 Z M216.837809,292.032209 L216.875785,292.041705 C217.642951,292.254274 218.450004,292.361411 219.291451,292.361411 C219.709905,292.361411 220.13242,292.333165 220.554218,292.277162 C220.968612,292.22262 221.369392,292.140563 221.751781,292.032209 C222.143962,291.923125 222.51823,291.785065 222.871719,291.626308 L222.937401,291.593193 C223.283964,291.432245 223.615718,291.249382 223.927886,291.049232 C224.271105,290.829115 224.593305,290.584649 224.89186,290.32046 L224.934613,290.279796 C225.223136,290.020964 225.492552,289.741436 225.741666,289.444619 C226.005111,289.131975 226.252792,288.787434 226.487814,288.416108 C226.710416,288.06061 226.918927,287.671266 227.112629,287.25319 C227.499795,286.418012 227.789751,285.501265 227.98202,284.506113 C228.17023,283.521188 228.265528,282.458101 228.265528,281.32075 C228.265528,280.172198 228.169513,279.101563 227.97796,278.114689 C227.884572,277.62941 227.763239,277.155331 227.618978,276.697566 C227.473522,276.238583 227.304898,275.801759 227.112629,275.388309 C226.918927,274.97072 226.710416,274.580889 226.487814,274.224661 L226.448405,274.165979 C226.226997,273.817298 225.991497,273.493697 225.741666,273.19688 C225.479654,272.884967 225.195191,272.592289 224.89186,272.321039 C224.593305,272.055877 224.271105,271.812384 223.927886,271.591537 C223.251481,271.15666 222.522291,270.82819 221.742943,270.60856 L221.7064,270.59882 C220.939473,270.386982 220.13242,270.28082 219.291451,270.28082 C218.437107,270.28082 217.619783,270.390391 216.837809,270.60856 C216.059895,270.82819 215.330227,271.15666 214.653822,271.591537 C214.317291,271.809462 213.995807,272.053198 213.691042,272.3225 C213.387711,272.592289 213.102054,272.884967 212.840042,273.19688 C212.577314,273.510255 212.329633,273.854065 212.093894,274.224661 C211.871769,274.580889 211.662542,274.97072 211.468362,275.388309 C211.080958,276.223487 210.791957,277.139504 210.601837,278.134656 C210.412195,279.118851 210.316658,280.183885 210.316658,281.32075 C210.316658,282.458101 210.412195,283.521188 210.601837,284.506113 C210.791957,285.501265 211.081674,286.418012 211.468362,287.25319 C211.662542,287.671266 211.871769,288.06061 212.093894,288.416108 L212.133781,288.475521 C212.354473,288.823227 212.590928,289.147802 212.840042,289.444619 C213.102054,289.755802 213.387711,290.04921 213.691042,290.318269 C213.995807,290.588301 214.317291,290.832524 214.653822,291.049232 C215.329511,291.485569 216.059895,291.81331 216.837809,292.032209 Z M220.200013,288.077898 L220.174934,288.085446 C219.904324,288.149728 219.608397,288.182843 219.291451,288.182843 C218.968534,288.182843 218.66783,288.147537 218.39101,288.077898 C218.116818,288.009477 217.852895,287.902584 217.604975,287.763063 L217.57512,287.747966 C217.342963,287.612585 217.122989,287.443601 216.915672,287.244181 C216.698563,287.03356 216.497457,286.786416 216.313786,286.504939 C216.137281,286.233689 215.980837,285.921045 215.84398,285.567008 L215.829172,285.53024 C215.695658,285.179612 215.584118,284.790511 215.495268,284.370001 C215.40403,283.930497 215.333571,283.461776 215.290101,282.966756 C215.24496,282.47758 215.222509,281.927288 215.222509,281.32075 C215.222509,280.713237 215.24496,280.163189 215.290101,279.673282 C215.333571,279.179724 215.40403,278.711002 215.495268,278.270768 C215.586745,277.835161 215.703779,277.43486 215.84398,277.07303 C215.978688,276.723132 216.136564,276.409028 216.313786,276.13583 C216.497457,275.854109 216.699041,275.607695 216.917105,275.397318 C217.127766,275.193028 217.358489,275.019662 217.604975,274.881115 L217.641518,274.858227 C217.877257,274.729176 218.128282,274.630562 218.39101,274.564088 C218.669263,274.493232 218.969251,274.458656 219.291451,274.458656 C219.618428,274.458656 219.923193,274.493232 220.200013,274.564088 C220.483759,274.63324 220.751981,274.739403 220.999662,274.877463 C221.244716,275.013575 221.476872,275.188158 221.693742,275.397318 C221.91085,275.605747 222.11339,275.854109 222.296822,276.13583 C222.653655,276.681739 222.92307,277.376909 223.105308,278.214034 C223.294234,279.084518 223.389533,280.120334 223.389533,281.32075 C223.389533,281.928019 223.366604,282.47758 223.323373,282.966756 C223.279187,283.461776 223.208728,283.930497 223.11534,284.370731 C223.026012,284.802199 222.908979,285.20177 222.768777,285.565547 L222.753969,285.604749 C222.623083,285.93955 222.469506,286.239777 222.296822,286.504939 C222.11339,286.787146 221.911567,287.034291 221.693742,287.244181 C221.476872,287.45261 221.243999,287.626464 220.999662,287.763063 C220.751981,287.901853 220.483759,288.006798 220.200013,288.077898 Z M135.302996,136.77485 C136.706442,135.381832 138.169598,134.053826 139.682674,132.804712 C141.202676,131.549267 142.785015,130.368817 144.411064,129.26385 C146.037351,128.162292 147.717856,127.134512 149.440875,126.19098 C149.736802,126.026136 149.989976,125.835482 150.197054,125.623644 C150.403654,125.412536 150.583026,125.166122 150.728004,124.888542 C150.849098,124.660146 150.938425,124.417871 150.998136,124.173649 C151.067162,123.885111 151.105138,123.60826 151.102173,123.347237 C151.102173,123.106423 151.063818,122.826164 150.99121,122.530077 L150.99121,122.512789 C150.932454,122.272706 150.84241,122.034571 150.721077,121.804715 C150.574189,121.526647 150.39625,121.278041 150.188933,121.067664 C149.982573,120.859235 149.730592,120.667363 149.440875,120.507146 C147.820797,119.620104 146.22962,118.648327 144.684062,117.61032 L144.428738,117.448885 C142.797674,116.340266 141.213423,115.15032 139.677419,113.885866 C138.208052,112.671814 136.738924,111.338208 135.274573,109.884804 C133.86014,108.479368 132.527153,107.02645 131.282061,105.530922 C131.0179,105.209269 130.739169,104.971134 130.458766,104.806047 C130.162122,104.627323 129.830368,104.507281 129.485956,104.439591 C129.183341,104.380179 128.87786,104.369952 128.585515,104.396736 C128.286721,104.428634 127.986972,104.507281 127.694388,104.627323 C127.393207,104.752965 127.116148,104.911722 126.875155,105.102133 C126.696499,105.246524 126.517128,105.428656 126.351131,105.646094 L126.282822,105.750308 C126.080999,106.033977 125.921929,106.36123 125.826392,106.717459 C125.725599,107.062487 125.680936,107.432352 125.704581,107.811226 L125.698378,107.811226 L125.704581,108.079067 L125.707925,138.678471 C125.718195,138.808739 125.725599,138.94266 125.725599,139.08072 L125.718195,139.355379 C125.743274,139.76615 125.833318,140.125058 125.968026,140.425283 C126.150025,140.832645 126.430428,141.19204 126.774362,141.494457 C126.941553,141.639335 127.100623,141.758889 127.244884,141.847033 C127.379593,141.927142 127.556337,142.007251 127.766758,142.085899 C127.995093,142.170148 128.182585,142.229559 128.335684,142.257805 C128.460122,142.279962 128.649764,142.293598 128.895534,142.293598 C129.352442,142.293598 129.799319,142.201802 130.200815,142.011391 C130.535197,141.854095 130.856919,141.625699 131.142576,141.317682 C131.250294,141.181813 131.363984,141.051302 131.484362,140.923711 C132.691,139.491491 133.967859,138.108213 135.302996,136.77485 Z M144.839788,197.100253 C146.7171,201.720515 149.482911,205.892021 152.913424,209.390759 C156.348714,212.892905 160.439391,215.71303 164.973363,217.626391 C169.329634,219.468652 174.122273,220.481822 179.162832,220.481822 C184.203391,220.481822 188.994835,219.468652 193.352063,217.626391 C197.88484,215.71303 201.97695,212.892905 205.410807,209.390759 C208.842753,205.892021 211.607847,201.720515 213.485876,197.100253 C215.292251,192.659201 216.290857,187.772559 216.290857,182.633902 C216.290857,177.496707 215.292251,172.611282 213.485876,168.169743 C211.607847,163.548751 208.842753,159.373836 205.410807,155.877046 C201.97695,152.373682 197.88484,149.556236 193.352063,147.643605 C188.994835,145.802805 184.203391,144.784765 179.162832,144.784765 C174.122273,144.784765 169.329634,145.802805 164.973363,147.643605 C160.439391,149.556236 156.348714,152.373682 152.913424,155.877046 C149.482911,159.373836 146.7171,163.548751 144.839788,168.169743 L144.830951,168.165117 C143.03198,172.604464 142.038867,177.489159 142.038867,182.633902 C142.038867,187.772559 143.03198,192.659201 144.839788,197.100253 L144.839788,197.100253 Z" id="Fill-6" fill="#FBB428" fill-rule="nonzero"></path>
                    <g id="Group-20" transform="translate(0.000000, 0.000000)" stroke="#FFFFFF">
                        <g id="Group-11" transform="translate(0.007752, 0.000000)">
                            <path d="M25.8654146,83.2624755 C25.3147941,83.1441119 24.7669241,83.0105163 24.2238052,82.8616876 C21.6699958,82.1582489 19.2422141,81.1184485 17.0039739,79.7847364 C14.7562317,78.4405367 12.6880287,76.7976815 10.8633791,74.8886332 C9.07073655,73.0147942 7.50989472,70.8822535 6.24486766,68.5334621 C6.168851,68.3956215 6.08308221,68.2787557 5.98756132,68.1823671 C5.89104018,68.0862282 5.7747647,68.0025746 5.65073757,67.9354018 C5.54446428,67.8794667 5.43394004,67.8370156 5.32341586,67.8100466 C5.19288727,67.7783328 5.06535934,67.7621017 4.94558312,67.7621017 C4.83555902,67.7621017 4.70878125,67.780331 4.57275146,67.8137923 L4.56474971,67.8137923 C4.45572582,67.8397622 4.34595178,67.8829623 4.24242911,67.938149 C4.11465114,68.0063204 4.00137631,68.0889748 3.90435508,68.1873616 C3.81008443,68.2822518 3.72281532,68.3976186 3.64979932,68.5334621 C2.61707315,70.4482539 1.39080459,72.2164648 0,73.8226122 M14.7407283,0 C14.7327265,0.21450262 14.7284756,0.431002936 14.7284756,0.64825239 C14.7284756,2.98131173 15.186576,5.1977556 16.0192583,7.21068414 C16.8869483,9.31026275 18.1592269,11.2050775 19.7405733,12.799239 C21.3234199,14.3911531 23.209583,15.6774197 25.3040417,16.5571551 C25.4890823,16.6358144 25.6763733,16.7099789 25.8641644,16.7823953 M13.629985,23.3645543 C12.9458352,22.8109427 12.2611853,22.2036431 11.5807863,21.5411572 C10.9216419,20.9006458 10.3020062,20.2366616 9.72212918,19.5549478 C9.59885222,19.4083669 9.46857366,19.300741 9.33879524,19.2243291 C9.20126515,19.1421738 9.04673128,19.0877367 8.885696,19.0572718 C8.74466514,19.031052 8.60238398,19.0260578 8.46685426,19.0382937 C8.328574,19.0515284 8.18829326,19.0877367 8.05226346,19.1421738 C7.91273295,19.2003568 7.7837047,19.2710253 7.67093,19.359673 C7.58716163,19.4245981 7.50364335,19.5082516 7.42712656,19.6086359 L7.39511959,19.6548326 C7.30159908,19.7841834 7.22783295,19.9330118 7.18182284,20.0958241 C7.13581278,20.2528929 7.11530829,20.4219479 7.12731089,20.5954978 L7.12230983,20.5954978 L7.12731089,20.7166081 L7.12806107,34.6687674 C7.13281214,34.7281989 7.13581278,34.7883794 7.13581278,34.8508075 L7.13281214,34.9766625 C7.1435645,35.1641961 7.18607378,35.3270084 7.24908756,35.4631014 C7.3336061,35.6491368 7.46313444,35.8149457 7.62491989,35.951538 C7.70143662,36.0179614 7.77520281,36.0716497 7.84246753,36.112852 C7.90623149,36.1495598 7.98774934,36.185768 8.08552079,36.2217264 C8.19129395,36.2601821 8.28056352,36.2876504 8.35057884,36.3003857 C8.40809143,36.3088759 8.49661077,36.3173662 8.61088581,36.3173662 C8.82343234,36.3173662 9.03247815,36.2734169 9.21901899,36.1877656 C9.37430303,36.1155988 9.52383578,36.0117187 9.65761506,35.8713805 C9.7066258,35.8099513 9.76038758,35.7497708 9.81639981,35.6930862 C10.3772727,35.0383412 10.9719029,34.4075688 11.5927889,33.7987708 C12.2469321,33.164752 12.926831,32.5587009 13.6327356,31.9911055 C14.3393904,31.4170177 15.0753015,30.879138 15.8329675,30.3757186 C16.5898833,29.8725489 17.3725547,29.4053376 18.1734801,28.9743347 C18.3122605,28.8991714 18.4292861,28.8135201 18.5250571,28.7158827 C18.6220783,28.6202431 18.7058467,28.507623 18.7738616,28.3802698 C18.8291236,28.2756405 18.871633,28.1652678 18.8986389,28.0546453 C18.931146,27.9230471 18.9481497,27.7969426 18.9468942,27.6780797 C18.9468942,27.5662087 18.9291456,27.4411029 18.8956382,27.3050099 L18.8956382,27.2972688 C18.8681322,27.1883944 18.826373,27.0792702 18.7696106,26.9751404 C18.7008456,26.8477872 18.6193277,26.7346678 18.5228066,26.6382788 C18.4257853,26.5433881 18.3087597,26.4564884 18.1734801,26.3835727 C17.4205652,25.9785397 16.6791528,25.5355505 15.9597453,25.0625959 L15.8407192,24.988931 C15.0815529,24.4837635 14.3443915,23.9406399 13.629985,23.3645543 M25.8649146,38.5717664 C25.7096306,38.6319468 25.5558469,38.6921273 25.4033134,38.7553046 C23.2931013,39.6287973 21.3886842,40.9113182 19.7910844,42.5082263 C18.1924843,44.1036365 16.9062025,46.0071911 16.0327613,48.1130127 L16.0277602,48.1130127 C15.191327,50.1359296 14.7284756,52.3628613 14.7284756,54.7086558 C14.7284756,57.0517038 15.191327,59.2791347 16.0327613,61.3057977 C16.9062025,63.4116191 18.1924843,65.3136759 19.7910844,66.9083365 C21.3886842,68.5052449 23.2931013,69.7900129 25.4033134,70.6635059 C25.5565971,70.7256837 25.7103807,70.7881122 25.8654146,70.846045" id="Stroke-8"></path>
                            <path d="M148.525527,17.7238096 L161.115535,17.7123229 C161.175798,17.7080777 161.238062,17.7045818 161.300576,17.7045818 L161.422352,17.7080777 C161.581887,17.6953424 161.72867,17.6606325 161.861198,17.6061952 C162.036987,17.5347776 162.200023,17.4236558 162.339553,17.2828182 C162.477833,17.1467252 162.587107,16.9819152 162.665125,16.7998752 C162.732389,16.6350652 162.770647,16.4475315 162.770647,16.2450151 L162.777649,8.08917097 C162.772648,8.02973951 162.769897,7.9710572 162.769897,7.90937831 L162.773398,7.78701943 C162.761396,7.62695402 162.725888,7.47912455 162.669375,7.34677715 L162.674876,7.34677715 L162.669375,7.33828697 C162.602611,7.17122961 162.489336,7.0104151 162.345304,6.86683065 C162.207024,6.72948904 162.041988,6.61761808 161.857698,6.5432039 C161.692411,6.47403367 161.50387,6.4350786 161.300576,6.4350786 L152.23409,6.4350786 M174.837254,0.2244911 L174.837254,26.1825543 M177.659908,50.6703133 C177.827945,51.9403485 177.912964,53.2298613 177.912964,54.5303617 C177.912964,58.4730647 177.123541,62.2499585 175.690977,65.7042252 C175.557698,66.0263535 175.417417,66.3442373 175.273386,66.6606222 M149.000382,83.7344316 L148.666559,83.7366789 C146.014227,83.7366789 143.398655,83.3728484 140.883104,82.6806469 C138.329295,81.9784564 135.901513,80.9399042 133.662272,79.6056929 C131.41553,78.2622426 129.346328,76.6163906 127.522678,74.7088407 C125.730036,72.8350012 124.169194,70.7037092 122.903167,68.355168 C122.8294,68.2150795 122.743131,68.0989632 122.64586,68.0033236 C122.549589,67.9064352 122.434814,67.8227822 122.309286,67.7556094 C122.204263,67.6981753 122.093739,67.658721 121.982465,67.6302541 C121.852686,67.5985403 121.723658,67.5823092 121.604632,67.5823092 C121.494108,67.5823092 121.36858,67.5992898 121.232551,67.6339993 L121.224799,67.6339993 C121.114775,67.6607186 121.005751,67.701921 120.900728,67.7591054 C120.77395,67.8265274 120.659175,67.9091823 120.562654,68.0068197 C120.468383,68.1024593 120.381864,68.2185756 120.308348,68.355168 C119.042321,70.702461 117.482979,72.833004 115.688086,74.7088407 C113.865187,76.6163906 111.796734,78.2622426 109.546241,79.6056929 C107.308501,80.9399042 104.88147,81.9784564 102.32616,82.6806469 C101.717527,82.8489526 101.102142,82.9970318 100.482756,83.1251342 M100.481256,70.7419153 C100.694553,70.6647541 100.905849,70.5828486 101.114895,70.4964484 C103.218605,69.6306966 105.116271,68.359413 106.71037,66.7802341 C108.30647,65.1995572 109.593001,63.3159795 110.474945,61.2243915 C111.326131,59.2077174 111.803986,56.9950192 111.82374,54.6697007 L111.817239,0 M139.249246,14.9382721 C140.105434,15.4961287 141.012883,15.9780729 141.963341,16.3773624 C143.980532,17.2281312 146.198518,17.7068292 148.525527,17.7238096 M126.306162,19.2922508 C126.20714,19.1868723 126.102117,19.1047171 125.997844,19.0452856 C125.860314,18.9631303 125.70578,18.9086931 125.544995,18.8782282 C125.403964,18.8500108 125.262933,18.8462651 125.125403,18.8590004 C124.987123,18.873234 124.848342,18.9086931 124.710812,18.9631303 C124.571032,19.019815 124.442753,19.0927309 124.329479,19.1798804 C124.247211,19.2455546 124.162692,19.328459 124.085425,19.4275947 L124.052918,19.4742908 C123.960898,19.6051399 123.887132,19.7537186 123.841622,19.9160314 C123.794862,20.0731002 123.774357,20.2414061 123.785109,20.414956 L123.782109,20.414956 L123.785109,20.5373149 L123.78786,34.4882257 C123.791361,34.5471577 123.794862,34.609336 123.794862,34.6722635 L123.791361,34.7961205 C123.803363,34.9844034 123.845122,35.1479648 123.907636,35.2845574 C123.992655,35.4708423 124.123183,35.6336546 124.282469,35.7709963 C124.361236,35.8381688 124.434252,35.8933552 124.502267,35.9330595 C124.56478,35.9690179 124.646298,36.0059752 124.74532,36.0414343 C124.850343,36.0803895 124.938862,36.1063596 125.010628,36.1205932 C125.06789,36.1305817 125.15666,36.1368243 125.269935,36.1368243 C125.481981,36.1368243 125.691027,36.0943732 125.877318,36.0079731 C126.034102,35.9358062 126.182885,35.8311768 126.316164,35.6930862 C126.366425,35.6294096 126.418937,35.5712267 126.474949,35.5117951 C127.035571,34.8585487 127.630952,34.2285251 128.252588,33.6204765 C128.904731,32.9849594 129.58663,32.3804067 130.292034,31.8098147 C130.99944,31.237974 131.735101,30.6998446 132.492016,30.1959258 C133.248432,29.6940048 134.030853,29.2247959 134.833279,28.7950415 C134.971559,28.7186297 135.088585,28.6322292 135.184856,28.5375884 C135.281377,28.4404503 135.364895,28.3278303 135.43216,28.2019753 C135.488173,28.0970964 135.530182,27.9854752 135.558438,27.8756019 C135.589695,27.7440037 135.607448,27.6166505 135.605198,27.4982869 C135.605198,27.3879142 135.588195,27.2605612 135.554187,27.1267154 L135.554187,27.1182254 C135.525931,27.0086018 135.485422,26.8994776 135.429409,26.7948483 C135.359895,26.6694929 135.277626,26.5548749 135.182106,26.4584863 C135.084834,26.3643447 134.968058,26.2779444 134.833279,26.2022816 C134.079114,25.7987469 133.337702,25.3557579 132.618294,24.8828034 L132.499268,24.8078898 C131.774859,24.326445 131.070955,23.8097908 130.385555,23.2626718 M148.666559,37.2737632 C146.320295,37.2737632 144.091056,37.7359801 142.062612,38.5760114 C139.95315,39.449504 138.048483,40.7330236 136.449383,42.329932 C134.852534,43.9238439 133.564501,45.8266494 132.69056,47.9337195 L132.687809,47.9317216 C131.850626,49.9568861 131.387775,52.1830688 131.387775,54.5303617 C131.387775,56.87316 131.850626,59.1008406 132.69056,61.1245068 C133.564501,63.2318266 134.852534,65.1331339 136.449383,66.728544 C138.048483,68.3262013 139.95315,69.6117188 142.062612,70.4837129 C142.559471,70.6889765 143.067582,70.872265 143.587196,71.030832 M152.694191,37.927095 C151.404658,37.5054206 150.055863,37.2834142 148.666559,37.2834142" id="Stroke-9"></path>
                            <path d="M236.354263,69.2568776 C235.209512,71.1801599 233.862717,72.9463732 232.347385,74.5290477 C230.522985,76.438096 228.455283,78.0817006 226.20554,79.4251509 C223.96705,80.7601117 221.541518,81.7986639 218.986209,82.5021026 C216.470658,83.1930559 213.856335,83.5583843 211.200504,83.5583843 C210.972954,83.5583843 210.744654,83.555388 210.517104,83.5498943 M191.519444,75.9539042 C191.191372,75.6564975 190.869551,75.35085 190.554732,75.0372117 C187.862643,72.3595495 185.686666,69.1607387 184.19809,65.6023428 C182.769277,62.1912768 181.971853,58.4361073 181.955349,54.4786711 L181.955349,54.4706804 L181.949098,50.1564059 M182.030727,25.8102337 C182.031754,17.2076549 182.037581,8.60382743 182.044436,0.00274683215 M194.017815,0.00274683215 L194.018844,25.8087355 M193.92322,50.1564059 L193.92322,54.1670305 C193.927471,54.2279606 193.930972,54.2866429 193.930972,54.3490708 C193.930972,54.408502 193.929471,54.4659361 193.924471,54.5218712 C193.944975,56.8024911 194.406576,58.9697419 195.228006,60.9462122 C196.101197,63.053532 197.387729,64.9533414 198.986079,66.5487509 C200.583178,68.1449105 202.489096,69.430428 204.597308,70.3031714 C206.626502,71.1419538 208.85574,71.6056695 211.200504,71.6056695 C213.538266,71.6056695 215.758252,71.1484466 217.774694,70.3166559 C219.877154,69.4494057 221.77457,68.1796205 223.370169,66.6004416 C224.965018,65.0197647 226.2523,63.136187 227.134743,61.044599 C227.98468,59.0279244 228.463785,56.8137283 228.482289,54.4899083 L228.482289,50.1564059 M228.576033,25.8044905 L228.572263,0.00274683215" id="Stroke-10"></path>
                        </g>
                        <g id="Group-15" transform="translate(0.000000, 91.259003)">
                            <path d="M34.7858683,112.70577 C33.8744187,112.79217 32.9507165,112.836868 32.0165116,112.836868 C29.3626806,112.836868 26.7486081,112.473038 24.2315567,111.781336 C21.6777475,111.077897 19.2499658,110.039345 17.0117257,108.704384 C14.7639834,107.360934 12.6957804,105.717329 10.8711309,103.808281 C9.07848821,101.933942 7.51764638,99.8026503 6.25261937,97.45311 C6.17660272,97.3152689 6.09083392,97.1984036 5.99531299,97.1020151 C5.89879184,97.0058761 5.78251637,96.922222 5.65848923,96.8550498 C5.55221599,96.7991141 5.44169176,96.756663 5.33116757,96.7296945 C5.20063897,96.6979807 5.07311105,96.6817496 4.9533348,96.6817496 C4.8433107,96.6817496 4.71653293,96.6999784 4.58050316,96.7331901 L4.57250139,96.7331901 C4.46347752,96.760908 4.35370349,96.8026102 4.25018081,96.8577964 C4.12240282,96.9259678 4.00912801,97.0093717 3.91210678,97.107009 C3.81783613,97.2026492 3.73056701,97.3172665 3.65755102,97.45311 C2.95439702,98.756357 2.16047315,99.99368 1.28728192,101.15584 M0,0.3595853 L5.06585944,0.3595853 L5.06585944,0.368075508 C6.20360863,0.368075508 7.12656077,1.28751515 7.12656077,2.42495338 L7.12656077,9.53750065 C7.13006154,9.59618296 7.13506261,9.65911044 7.13506261,9.71854184 L7.13006154,9.84614473 C7.1435645,10.0344276 7.18382326,10.1957415 7.24633696,10.3315849 C7.33210576,10.51787 7.46238432,10.6834291 7.62191925,10.8207707 C7.69993633,10.8871941 7.77370246,10.9418811 7.84096719,10.9808361 C7.90323085,11.0190421 7.98549887,11.0557497 8.08402045,11.0912088 C8.19054378,11.1314124 8.27981329,11.1568831 8.3490785,11.1703675 C8.40809137,11.1796069 8.49511047,11.1860994 8.61013564,11.1860994 C8.82268222,11.1860994 9.02972756,11.1441478 9.21826882,11.0577474 C9.37280268,10.9855806 9.52233543,10.8817005 9.65686488,10.7413623 C9.70512546,10.6799331 9.75763698,10.6205017 9.81439939,10.5615696 C11.1786982,8.97464979 12.6907793,7.55328903 14.3203862,6.31321911 C16.0080058,5.02919996 17.8246537,3.93621047 19.7343219,3.05422765 C21.6444902,2.16874884 23.65243,1.49277842 25.7201329,1.04104939 L25.8731664,1.00783769 M25.8731664,13.430511 C25.7186325,13.4891933 25.5643486,13.5508721 25.4110652,13.6145487 C23.300853,14.4880413 21.3964359,15.7720605 19.798836,17.3689688 C18.2002359,18.9658772 16.9139543,20.864937 16.0405129,22.9730059 C15.1990786,24.9974211 14.7362273,27.2258511 14.7362273,29.5686492 C14.7362273,31.9009595 15.1943276,34.1174033 16.02701,36.1303319 C16.8947,38.2299104 18.1669787,40.1247252 19.748325,41.7181377 C21.3311716,43.3108009 23.2173347,44.5975668 25.3117935,45.4768028 C25.4983343,45.555462 25.6853753,45.6303756 25.8754169,45.7032916 M13.6377367,52.2842022 C12.9535869,51.7305905 12.268937,51.1232908 11.588538,50.460805 C10.9293936,49.8195444 10.3097579,49.1563094 9.7298809,48.4745957 C9.60660388,48.3280145 9.47632538,48.2203888 9.34654695,48.143977 C9.20901681,48.0625707 9.054483,48.0066352 8.89344772,47.9776685 C8.75241681,47.9499506 8.61013564,47.9457056 8.47460598,47.9579415 C8.33632572,47.9711762 8.19604498,48.0066352 8.06001518,48.0625707 C7.92048461,48.1200044 7.79145636,48.1921713 7.67868166,48.279071 C7.59491334,48.3442459 7.51139501,48.4278993 7.43487828,48.5282837 L7.40287126,48.5744804 C7.3093508,48.7038313 7.23558461,48.8526596 7.18957455,49.0154718 C7.1435645,49.1725405 7.12306,49.3415957 7.13506261,49.5143965 L7.13006154,49.5143965 L7.13506261,49.636256 L7.13581278,63.5884148 C7.14056381,63.6470976 7.1435645,63.7080272 7.1435645,63.7712046 L7.14056381,63.8963103 C7.15131616,64.0838438 7.1938255,64.2466563 7.25683928,64.3827494 C7.34135777,64.5687846 7.47088615,64.7338444 7.6326716,64.8711857 C7.70918834,64.9368601 7.78295447,64.9912974 7.85021925,65.0324998 C7.9139832,65.0692075 7.99550105,65.1069139 8.09327246,65.140875 C8.19904561,65.1795804 8.28831518,65.2072983 8.35833051,65.2200334 C8.41584309,65.2285239 8.50436248,65.236265 8.61863753,65.236265 C8.83118406,65.236265 9.04022987,65.1930644 9.22677071,65.1069139 C9.38205469,65.0352464 9.53158749,64.9313664 9.66536677,64.7910282 C9.71437747,64.7295988 9.76813929,64.6694187 9.82415153,64.6127341 C10.3850244,63.9579888 10.9796546,63.3272166 11.6005406,62.7206658 C12.2546839,62.0836505 12.9345828,61.4790979 13.6404873,60.9107532 C14.3471421,60.3366657 15.0830533,59.7992853 15.8407192,59.2953663 C16.5976349,58.7921968 17.3803063,58.3249855 18.1812318,57.8937325 C18.3200122,57.8188192 18.4370378,57.7331679 18.5328087,57.6355306 C18.62983,57.5406399 18.7135984,57.4272707 18.7816132,57.2999178 C18.8368754,57.1965365 18.8793847,57.0861642 18.9063906,56.9742929 C18.9388977,56.8434439 18.9559014,56.716091 18.9546458,56.5969784 C18.9546458,56.4866055 18.9368973,56.3592526 18.9033899,56.2246579 L18.9033899,56.2169168 C18.8758839,56.1080423 18.8341248,55.9996671 18.7773624,55.8947879 C18.7085973,55.767435 18.6270794,55.6548148 18.5305583,55.5579264 C18.433537,55.4630357 18.3165114,55.3761362 18.1812318,55.3032205 C17.4283169,54.8981876 16.6869045,54.4551982 15.967497,53.9814946 L15.8484709,53.9085789 C15.0893046,53.4031615 14.3521432,52.8595385 13.6377367,52.2842022 M25.8754169,67.4901656 C25.7193827,67.5503463 25.5648488,67.6105264 25.4110652,67.6742031 C23.300853,68.548445 21.3964359,69.8309657 19.798836,71.4278742 C18.2002359,73.0240332 16.9139543,74.9268388 16.0405129,77.033909 L16.0355119,77.0311623 C15.1990786,79.0555775 14.7362273,81.2825092 14.7362273,83.6283037 C14.7362273,85.9713517 15.1990786,88.1995321 16.0405129,90.2246962 C16.9139543,92.332016 18.2002359,94.2333232 19.798836,95.8287333 C21.3964359,97.4248928 23.300853,98.7096609 25.4110652,99.5831538 C26.1752324,99.8995387 26.9691565,100.163484 27.7863353,100.367998" id="Stroke-12"></path>
                            <path d="M148.53328,46.6439568 L161.123287,46.6319707 C161.18355,46.6277254 161.245814,46.6257278 161.308327,46.6257278 L161.430104,46.6277254 C161.589639,46.6164884 161.736421,46.5802802 161.86895,46.525843 C162.044739,46.4551744 162.207774,46.3440526 162.347304,46.2017167 C162.485585,46.0658735 162.594859,45.901563 162.672876,45.7202722 C162.740141,45.5547129 162.778399,45.3671792 162.778399,45.1639137 L162.7854,37.0088187 C162.7804,36.9493874 162.777649,36.890705 162.777649,36.8290262 L162.78115,36.7074163 C162.769147,36.5466018 162.733639,36.4000209 162.677127,36.2656758 L162.682628,36.2656758 L162.677127,36.2579346 C162.610362,36.0921259 162.497088,35.930063 162.353056,35.7864783 C162.214776,35.6491368 162.049739,35.5372659 161.865449,35.4628516 C161.700163,35.3936813 161.511622,35.3547264 161.308327,35.3547264 L148.530529,35.3547264 C147.966155,35.3547264 147.453793,35.1282375 147.080211,34.7621597 M146.477079,25.2204141 C146.601856,24.1998409 147.475048,23.4077545 148.530529,23.4077545 L172.682068,23.4077545 C173.823068,23.4077545 174.748771,24.3321883 174.748771,25.4723735 L174.748771,51.6569254 M151.500429,112.520483 C150.569725,112.610879 149.627769,112.655577 148.674311,112.655577 C146.02198,112.655577 143.406407,112.292496 140.890856,111.600294 C138.337046,110.898104 135.909265,109.859552 133.670024,108.523842 C131.423282,107.181141 129.354079,105.536038 127.53043,103.628488 C125.737787,101.755399 124.176945,99.6228578 122.910918,97.2748154 C122.837152,97.1367251 122.750883,97.0186111 122.653612,96.922222 C122.557341,96.8260831 122.442565,96.7424295 122.317038,96.6760062 C122.212015,96.6178232 122.101491,96.5783689 121.990216,96.5499015 C121.860438,96.5174393 121.73141,96.5019571 121.612384,96.5019571 C121.501859,96.5019571 121.376332,96.5201859 121.240302,96.5533976 L121.232551,96.5533976 C121.122526,96.5803665 121.013502,96.6228177 120.90848,96.6787533 C120.781702,96.7461753 120.666927,96.8295792 120.570406,96.9264676 C120.476134,97.0221072 120.389616,97.138223 120.3161,97.2748154 C119.050073,99.6213594 117.490731,101.751902 115.695838,103.628488 C113.872939,105.536038 111.804486,107.181141 109.553993,108.523842 C107.316253,109.859552 104.889221,110.898104 102.333912,111.600294 C99.8198613,112.292496 97.2057883,112.655577 94.5512072,112.655577 C93.6070006,112.655577 92.6727957,112.610879 91.7493432,112.521732 M98.6346014,100.222166 C99.4922894,100.014906 100.323221,99.7452163 101.122646,99.4160958 C103.226357,98.5503445 105.124023,97.2783115 106.718122,95.6991325 C108.314221,94.1192046 109.600753,92.2348779 110.482696,90.1440394 C111.333883,88.1266159 111.811737,85.9146671 111.831492,83.5885997 L111.82149,2.42770019 C111.816488,2.36776932 111.812988,2.30609045 111.812988,2.24366245 C111.812988,1.10547509 112.739441,0.17979265 113.87994,0.17979265 L121.725159,0.17979265 L121.725159,0.186784587 C122.861407,0.186784587 123.784859,1.10772249 123.784859,2.24366245 L123.784859,9.35695891 C123.789861,9.4178886 123.792861,9.4780692 123.792861,9.53949834 L123.789861,9.66560294 C123.802613,9.85313667 123.843122,10.0159489 123.905386,10.1532905 C123.990404,10.3393259 124.120183,10.5036365 124.281718,10.6424763 C124.357735,10.7074015 124.432751,10.7620884 124.499516,10.8015429 C124.56253,10.8392494 124.645548,10.8759571 124.742569,10.9126647 C124.848843,10.9523689 124.939612,10.9770904 125.007627,10.9898258 C125.067141,10.9998142 125.154409,11.0063067 125.270685,11.0063067 C125.481981,11.0063067 125.688777,10.9651043 125.876567,10.8774553 C126.031101,10.805788 126.181384,10.7011587 126.315414,10.5615696 C126.364424,10.4986422 126.416185,10.4419576 126.474198,10.381777 C127.837997,8.79485714 129.350579,7.37274724 130.979435,6.13192822 C132.668555,4.84940731 134.484452,3.75566869 136.392621,2.87293673 C138.303539,1.98895619 140.310229,1.31298577 142.379932,0.862005875 C144.42788,0.411775111 146.535842,0.18104121 148.674311,0.18104121 L155.871637,0.18104121 M174.748771,8.70071572 L174.748771,10.0718844 L174.740269,10.0718844 C174.740269,11.2093226 173.818317,12.1287622 172.682068,12.1287622 L148.85785,12.1330073 C148.796337,12.1372524 148.736074,12.1414975 148.674311,12.1414975 C148.617048,12.1414975 148.558785,12.1372524 148.503523,12.1330073 C146.219773,12.1557311 144.047797,12.6159504 142.070364,13.4340069 C139.960902,14.3082487 138.056235,15.5922679 136.457135,17.1891762 L136.34311,17.3052923 M137.173792,42.264008 C138.587101,43.5238051 140.204705,44.5551157 141.971092,45.2970102 C143.988284,46.1477791 146.20627,46.6257278 148.53328,46.6439568 M130.296036,52.1044097 C129.613636,51.5515469 128.928736,50.9427491 128.246836,50.2795141 C127.588442,49.6390027 126.969057,48.9765166 126.38843,48.2948029 C126.266403,48.1497202 126.136124,48.0393475 126.005596,47.9649333 C125.868066,47.8827781 125.713532,47.8283409 125.552747,47.797876 C125.411716,47.7701581 125.270685,47.7654135 125.133155,47.7781488 C124.994875,47.7928818 124.856094,47.8283409 124.718564,47.8827781 C124.578783,47.9394628 124.450505,48.0123788 124.33723,48.0992785 C124.254962,48.1652025 124.170444,48.2488559 124.093177,48.3472424 L124.06067,48.3946877 C123.96865,48.5255367 123.894884,48.6741154 123.849374,48.8356793 C123.802613,48.992748 123.782109,49.161054 123.792861,49.3353528 L123.789861,49.3353528 L123.792861,49.4577119 L123.795612,63.4078734 C123.799112,63.4668053 123.802613,63.5282347 123.802613,63.5914116 L123.799112,63.715269 C123.811115,63.9040513 123.852874,64.0676127 123.915388,64.2042051 C124.000407,64.3904905 124.130935,64.5533024 124.29022,64.6913932 C124.368987,64.7570676 124.442004,64.8130028 124.510018,64.8519578 C124.572532,64.8894145 124.65405,64.925623 124.753071,64.961082 C124.858094,65.0005363 124.946614,65.0275058 125.018379,65.0394919 C125.075642,65.0502293 125.164412,65.055723 125.277686,65.055723 C125.489733,65.055723 125.698779,65.0147703 125.885069,64.9283701 C126.041854,64.8554539 126.190636,64.7500755 126.323916,64.6127341 C126.374177,64.5490574 126.426688,64.4903752 126.4827,64.4314427 C127.043323,63.7796947 127.638704,63.1481731 128.26034,62.5401244 C128.912483,61.9051067 129.594382,61.3000543 130.299786,60.7294623 C131.007191,60.1576216 131.742853,59.618993 132.499768,59.1155733 C133.256184,58.6136525 134.038605,58.1444436 134.841031,57.7146895 C134.979311,57.6390267 135.096337,57.552626 135.192608,57.457236 C135.289129,57.3600979 135.372647,57.2474782 135.439912,57.1216232 C135.495924,57.0167441 135.537934,56.9048733 135.566189,56.7952499 C135.597447,56.6644003 135.6152,56.5375467 135.61295,56.4186838 C135.61295,56.307562 135.595946,56.180958 135.561939,56.0463632 L135.561939,56.0371238 C135.533683,55.929498 135.493174,55.8191256 135.437161,55.7149954 C135.367646,55.5891404 135.285378,55.4757712 135.189857,55.3781339 C135.092586,55.2839926 134.97581,55.197592 134.841031,55.1219291 C134.086866,54.7183946 133.345453,54.2754057 132.626046,53.8032005 L132.50702,53.7275377 C131.748604,53.2221203 131.011942,52.6804949 130.296036,52.1044097 M148.674311,66.192662 C146.328046,66.192662 144.098808,66.6556278 142.070364,67.4956589 C139.960902,68.368652 138.056235,69.6526716 136.457135,71.2495795 C134.860285,72.8442407 133.572253,74.7470463 132.698312,76.8541165 L132.695561,76.8528677 C131.858377,78.876534 131.395526,81.1042145 131.395526,83.4500096 C131.395526,85.7928074 131.858377,88.0204885 132.698312,90.0441547 C133.572253,92.151474 134.860285,94.0527813 136.457135,95.6481919 C138.056235,97.2443509 139.960902,98.5311166 142.070364,99.4033608 C142.886043,99.7417207 143.734478,100.016903 144.60992,100.22791 M150.161386,66.3650632 C149.672279,66.3066404 149.17617,66.2784604 148.674311,66.2784604" id="Stroke-13"></path>
                            <path d="M242,100.87841 C241.102552,99.6912788 240.288875,98.4284853 239.570217,97.0935245 C239.494951,96.9556839 239.409181,96.8388181 239.313661,96.7424295 C239.21639,96.6475388 239.100864,96.5641349 238.977587,96.4962137 C238.871314,96.4395291 238.76004,96.3985764 238.648765,96.370109 C238.518237,96.3391446 238.390709,96.3226634 238.272432,96.3226634 C238.160908,96.3226634 238.035631,96.3403934 237.898851,96.374354 L237.890849,96.374354 C237.781825,96.4005735 237.672051,96.4430247 237.568528,96.4982114 C237.441501,96.5663828 237.326726,96.6497867 237.230454,96.747424 C237.135434,96.8423147 237.048915,96.9576816 236.975148,97.0935245 C235.709122,99.4415669 234.15053,101.573608 232.355137,103.448696 C230.530737,105.357744 228.463035,107.002097 226.213292,108.345548 C223.974802,109.67976 221.54927,110.718311 218.993961,111.421751 C216.47841,112.112704 213.864087,112.477283 211.208256,112.477283 C210.379574,112.477283 209.556644,112.441824 208.742215,112.373153 M182.036022,51.3308016 C182.038078,43.6603977 182.04459,35.9909925 182.050417,28.3200891 L182.067896,9.0702895 M194.024678,9.05880274 L194.026735,53.9397924 M215.594466,99.9682094 C216.346381,99.773434 217.076541,99.5272181 217.782445,99.2363033 C219.884906,98.3690536 221.782321,97.0992679 223.377921,95.5208384 C224.97277,93.9394121 226.260052,92.0565838 227.142495,89.9642464 C227.992431,87.9475723 228.471537,85.7348741 228.49004,83.4103051 L228.48629,48.0703118 M228.485039,34.8505577 L228.480788,2.24790755 C228.476537,2.18922523 228.473037,2.1262978 228.473037,2.06536807 C228.473037,0.925682434 229.398739,0 230.539239,0 L236.362014,0" id="Stroke-14"></path>
                        </g>
                        <g id="Group-19" transform="translate(13.332919, 211.448116)">
                            <path d="M19.3429862,23.5770849 L42.6898493,23.5770849 C43.8303491,23.5770849 44.7560518,24.5015189 44.7560518,25.6404554 L44.7560518,31.2225177 M0,7.08760184 C0.323820918,6.81866197 0.652892986,6.55671406 0.987466262,6.30275697 C2.67508587,5.01873777 4.49173371,3.92574832 6.40140195,3.04376547 C8.31157028,2.1590358 10.31951,1.48306539 12.3872129,1.03008779 C14.4349113,0.581105589 16.5438732,0.349622552 18.6835918,0.349622552 L30.7129764,0.349622552 M44.7560518,5.27694002 L44.7560518,10.241964 L44.7483001,10.241964 C44.7483001,11.3779039 43.8253479,12.2988418 42.6898493,12.2988418 L18.8651316,12.3015887 C18.8056185,12.3065829 18.7431048,12.3100789 18.6835918,12.3100789 C18.6248289,12.3100789 18.5673163,12.3065829 18.510804,12.3015887 C16.2268037,12.3235633 14.0565785,12.7857803 12.0781452,13.6040866 C10.7045943,14.1724311 9.41731245,14.9158238 8.24630598,15.8040494" id="Stroke-16"></path>
                            <path d="M135.872257,23.3965432 L159.349148,23.3965432 C160.490148,23.3965432 161.415851,24.3217261 161.415851,25.4619113 L161.415851,31.2025407 M52.0533248,31.392322 L52.0553811,28.4901689 L52.0776586,5.5608626 M64.0328951,2.88170237 L64.0335805,29.8328703 M98.4893195,8.59461383 L98.4885696,2.41673859 C98.4835683,2.35730715 98.4800677,2.29562828 98.4800677,2.23394941 C98.4800677,1.09451349 99.4065206,0.169330479 100.54702,0.169330479 L104.390112,0.169330479 M116.711561,6.86485869 C117.018628,6.61065191 117.330446,6.36218843 117.646515,6.12146603 C119.335635,4.83894512 121.151533,3.74520653 123.059701,2.86247453 C124.970619,1.97849402 126.977309,1.30327273 129.047012,0.851543701 C131.094961,0.401312941 133.202922,0.170579038 135.34139,0.170579038 L147.283506,0.170579038 M161.415851,5.24872255 L161.415851,10.0614222 L161.407349,10.0614222 C161.407349,11.1981113 160.485397,12.1190492 159.349148,12.1190492 L135.52493,12.1232943 C135.463417,12.1282885 135.403154,12.1310354 135.34139,12.1310354 C135.284128,12.1310354 135.225865,12.1282885 135.170603,12.1232943 C132.886853,12.1445198 130.714877,12.6067368 128.737444,13.4230453 C127.365144,13.9926384 126.080612,14.7345328 124.909106,15.6235076" id="Stroke-17"></path>
                            <path d="M168.712013,31.4090268 L168.715782,28.3200891 L168.735318,5.5825618 M180.691898,2.97981346 L180.692926,29.907009 M215.148619,8.860032 L215.147868,2.24865668 C215.143617,2.18847609 215.140117,2.1262978 215.140117,2.06536807 C215.140117,0.926431573 216.065819,0 217.206319,0 L221.36423,0" id="Stroke-18"></path>
                        </g>
                    </g>
                </g>
                <rect id="Rectangle" stroke="#000000" stroke-width="4.8" fill="#FFFFFF" x="16.4" y="345.4" width="237.2" height="209.2"></rect>
                <text id="--" font-family="Helvetica" font-size="23.5" font-weight="normal" fill="#000000">
                    <tspan x="43.6391602" y="429">  </tspan>
                    <tspan x="28.3492432" y="457"> .</tspan>
                </text>
                <text id=":" font-family="Helvetica-Bold, Helvetica" font-size="23.5" font-weight="bold" fill="#000000">
                    <tspan x="29.2213135" y="388"></tspan>
                    <tspan x="232.953003" y="388" font-family="Beirut">:</tspan>
                </text>
                <text id="--" font-family="Helvetica" font-size="23.5" font-weight="normal" fill="#000000">
                    <tspan x="29.4909668" y="495">  </tspan>
                    <tspan x="61.3215332" y="523">.</tspan>
                </text>
                <g id="GREEN-2" transform="translate(57.000000, 32.000000)" fill="#FBB428" font-family="LucidaGrande-Bold, Lucida Grande" font-size="32" font-weight="bold" letter-spacing="-1.92">
                    <text id="YELLOW" transform="translate(19.000000, 61.500000) rotate(-90.000000) translate(-19.000000, -61.500000) ">
                        <tspan x="-41.651875" y="73.5">YELLOW</tspan>
                    </text>
                </g>
            </g>
        </g>
    </g>
</svg>