<?xml version="1.0" encoding="UTF-8"?>
<svg width="55px" height="56px" viewBox="0 0 55 56" version="1.1" xmlns="http://www.w3.org/2000/svg" xmlns:xlink="http://www.w3.org/1999/xlink">
    <title>path6</title>
    <g id="Page-1" stroke="none" stroke-width="1" fill="none" fill-rule="evenodd">
        <g id="UGO_LOGO" transform="translate(-320.794800, -81.061300)" fill="#1B1918">
            <path d="M375.2912,136.0732 L375.2912,81.948 L321.1699,81.948 L321.1699,136.0732 L375.2912,136.0732 Z M366.8307,109.8697 C366.5089,109.8697 366.2479,110.1308 366.2479,110.4524 C366.2479,110.6307 366.3282,110.7903 366.4536,110.898 C369.0564,113.1065 370.549,116.3145 370.549,119.7356 C370.549,126.1006 365.3989,131.3241 358.9603,131.3241 C354.6836,131.3241 350.7763,128.9799 348.7521,125.221 C348.5297,124.8073 347.9406,124.8175 347.7238,125.221 C345.703,128.9734 341.799,131.3241 337.5153,131.3241 C331.1719,131.3241 325.9546,126.2051 325.9268,119.7869 C325.9088,108.7551 325.9273,97.7267 325.9273,86.6968 L330.6677,86.6968 L330.6684,119.7356 C330.6684,123.5147 333.7362,126.5823 337.5153,126.5823 C341.2733,126.5823 344.3313,123.5486 344.362,119.7912 L344.358,86.6968 L349.098,86.6968 L349.0985,90.4105 C349.0985,90.9558 349.7769,91.1949 350.1272,90.7877 C352.3358,88.1877 355.5413,86.6968 358.9602,86.6968 L369.2916,86.6968 L369.2916,91.4376 L358.9602,91.4386 C355.1813,91.4386 352.1135,94.5062 352.1135,98.2854 C352.1135,102.0434 355.1474,105.1014 358.9046,105.1321 L363.9663,105.1271 C364.2878,105.1271 364.5488,104.8661 364.5488,104.5444 L364.5518,101.237 C364.5518,100.9142 364.2897,100.6522 363.9667,100.6522 L358.0843,100.6522 L358.0843,95.9118 L369.292,95.9118 L369.292,109.8673 L366.8307,109.8697 Z M352.1136,119.7356 C352.1136,123.5151 355.1814,126.5823 358.9603,126.5823 C362.7398,126.5823 365.8074,123.5151 365.8074,119.7356 C365.8074,115.9563 362.7398,112.8887 358.9603,112.8887 C355.1814,112.8887 352.1136,115.9563 352.1136,119.7356 Z M350.1309,112.2328 C351.0689,111.1295 352.2029,110.2111 353.4789,109.5248 C353.8923,109.3023 353.8826,108.7134 353.4789,108.4967 C352.2067,107.8125 351.0649,106.8883 350.1299,105.7873 C349.7659,105.3572 349.0682,105.646 349.1016,106.2001 L349.1023,111.856 C349.1023,112.4012 349.7806,112.6403 350.1309,112.2328 L350.1309,112.2328 Z" id="path6"></path>
        </g>
    </g>
</svg>