<svg width="55" height="56" xmlns="http://www.w3.org/2000/svg"><path d="M54.496 55.012V.887H.376v54.125h54.12Zm-8.46-26.204a.583.583 0 0 0-.377 1.029 11.552 11.552 0 0 1 4.095 8.837c0 6.365-5.15 11.589-11.588 11.589a11.582 11.582 0 0 1-10.209-6.103.585.585 0 0 0-1.028 0 11.583 11.583 0 0 1-10.208 6.103c-6.344 0-11.561-5.12-11.589-11.537-.018-11.032 0-22.06 0-33.09h4.74l.002 33.038a6.85 6.85 0 0 0 6.847 6.847 6.85 6.85 0 0 0 6.846-6.791l-.004-33.095h4.74V9.35c0 .545.68.785 1.03.377a11.551 11.551 0 0 1 8.832-4.09h10.332v4.74l-10.332.001a6.85 6.85 0 0 0-6.846 6.847 6.85 6.85 0 0 0 6.79 6.847l5.062-.005a.583.583 0 0 0 .583-.583l.003-3.307a.585.585 0 0 0-.585-.585h-5.883v-4.74h11.208v13.955l-2.461.002Zm-14.717 9.866a6.85 6.85 0 0 0 6.847 6.847 6.85 6.85 0 0 0 6.847-6.847 6.85 6.85 0 0 0-6.847-6.847 6.85 6.85 0 0 0-6.847 6.847Zm-1.983-7.503a11.615 11.615 0 0 1 3.348-2.708.584.584 0 0 0 0-1.028 11.638 11.638 0 0 1-3.349-2.709c-.364-.43-1.062-.141-1.028.413v5.656c0 .545.679.784 1.03.376Z" fill="#1B1918" fill-rule="evenodd"/></svg>