<svg width="55" height="56" xmlns="http://www.w3.org/2000/svg"><path d="M54.497 55.033V.908H.375v54.125h54.122Zm-8.46-26.204a.583.583 0 0 0-.378 1.029 11.552 11.552 0 0 1 4.095 8.837c0 6.365-5.15 11.589-11.588 11.589a11.581 11.581 0 0 1-10.209-6.103.585.585 0 0 0-1.028 0 11.583 11.583 0 0 1-10.208 6.103c-6.344 0-11.561-5.12-11.589-11.537-.018-11.032 0-22.06 0-33.09h4.741v33.038a6.85 6.85 0 0 0 6.848 6.847 6.85 6.85 0 0 0 6.846-6.791l-.004-33.094h4.74V9.37c0 .546.68.785 1.03.378a11.551 11.551 0 0 1 8.833-4.091h10.331v4.74l-10.331.002a6.85 6.85 0 0 0-6.847 6.847 6.85 6.85 0 0 0 6.791 6.847l5.062-.005a.583.583 0 0 0 .582-.583l.003-3.307a.585.585 0 0 0-.585-.585H37.29v-4.74h11.207v13.955l-2.46.001Zm-14.718 9.866a6.85 6.85 0 0 0 6.847 6.847 6.85 6.85 0 0 0 6.847-6.847 6.85 6.85 0 0 0-6.847-6.846 6.85 6.85 0 0 0-6.847 6.846Zm-1.983-7.502a11.615 11.615 0 0 1 3.348-2.708.584.584 0 0 0 0-1.028 11.638 11.638 0 0 1-3.349-2.71c-.364-.43-1.061-.141-1.028.413v5.656c0 .545.679.784 1.03.377Z" fill="#FFF" fill-rule="evenodd"/></svg>