<?xml version="1.0" encoding="UTF-8"?>
<svg width="80px" height="80px" viewBox="0 0 80 80" version="1.1" xmlns="http://www.w3.org/2000/svg" xmlns:xlink="http://www.w3.org/1999/xlink">
    <title>Group</title>
    <g id="Page-1" stroke="none" stroke-width="1" fill="none" fill-rule="evenodd">
        <g id="Group">
            <rect id="Rectangle" x="0" y="0" width="80" height="80"></rect>
            <path id="Line" d="M71.1664254,8.83357455 L69.9680702,13.1134146 L62.543449,39.6299189 C62.1711678,40.9594948 60.79154,41.7355354 59.4619642,41.3632542 C58.1323883,40.9909729 57.3563477,39.6113452 57.7286289,38.2817693 L62.58,20.954 L15.267767,68.267767 C14.2914562,69.2440777 12.7085438,69.2440777 11.732233,68.267767 C10.7559223,67.2914562 10.7559223,65.7085438 11.732233,64.732233 L59.045,17.419 L41.7182307,22.2713711 C40.4418379,22.6287611 39.1193172,21.9278576 38.6861872,20.6948899 L38.6367458,20.5380358 C38.2644646,19.20846 39.0405052,17.8288322 40.3700811,17.456551 L66.8865854,10.0319298 L71.1664254,8.83357455 Z" fill="#FFFFFF" fill-rule="nonzero"></path>
        </g>
    </g>
</svg>